G04 EAGLE Gerber RS-274X export*
G75*
%MOMM*%
%FSLAX34Y34*%
%LPD*%
%INTop Copper*%
%IPPOS*%
%AMOC8*
5,1,8,0,0,1.08239X$1,22.5*%
G01*
%ADD10P,1.539592X8X292.500000*%
%ADD11P,1.539592X8X22.500000*%
%ADD12P,1.539592X8X202.500000*%
%ADD13P,1.539592X8X112.500000*%
%ADD14C,1.422400*%
%ADD15C,1.879600*%
%ADD16C,1.509600*%
%ADD17C,0.406400*%
%ADD18C,0.858000*%
%ADD19C,1.016000*%


D10*
X330200Y419100D03*
X330200Y393700D03*
D11*
X330200Y215900D03*
X355600Y215900D03*
D10*
X177800Y114300D03*
X177800Y88900D03*
D11*
X368300Y469900D03*
X393700Y469900D03*
D12*
X177800Y469900D03*
X152400Y469900D03*
D13*
X368300Y355600D03*
X368300Y431800D03*
X152400Y330200D03*
X152400Y406400D03*
D10*
X406400Y431800D03*
X406400Y355600D03*
D13*
X114300Y330200D03*
X114300Y406400D03*
D14*
X208788Y419100D02*
X223012Y419100D01*
X223012Y393700D02*
X208788Y393700D01*
X208788Y368300D02*
X223012Y368300D01*
X223012Y342900D02*
X208788Y342900D01*
X208788Y317500D02*
X223012Y317500D01*
X223012Y292100D02*
X208788Y292100D01*
X208788Y266700D02*
X223012Y266700D01*
X223012Y241300D02*
X208788Y241300D01*
X208788Y215900D02*
X223012Y215900D01*
X223012Y190500D02*
X208788Y190500D01*
X208788Y165100D02*
X223012Y165100D01*
X223012Y139700D02*
X208788Y139700D01*
X208788Y114300D02*
X223012Y114300D01*
X223012Y88900D02*
X208788Y88900D01*
X284988Y88900D02*
X299212Y88900D01*
X299212Y114300D02*
X284988Y114300D01*
X284988Y139700D02*
X299212Y139700D01*
X299212Y165100D02*
X284988Y165100D01*
X284988Y190500D02*
X299212Y190500D01*
X299212Y215900D02*
X284988Y215900D01*
X284988Y241300D02*
X299212Y241300D01*
X299212Y266700D02*
X284988Y266700D01*
X284988Y292100D02*
X299212Y292100D01*
X299212Y317500D02*
X284988Y317500D01*
X284988Y342900D02*
X299212Y342900D01*
X299212Y368300D02*
X284988Y368300D01*
X284988Y393700D02*
X299212Y393700D01*
X299212Y419100D02*
X284988Y419100D01*
D15*
X330200Y165100D03*
X330200Y139700D03*
X469900Y368300D03*
X469900Y342900D03*
X469900Y317500D03*
X469900Y292100D03*
X469900Y266700D03*
X469900Y241300D03*
X469900Y215900D03*
X469900Y190500D03*
X469900Y165100D03*
X469900Y139700D03*
X25400Y241300D03*
X25400Y215900D03*
X25400Y190500D03*
X25400Y165100D03*
X25400Y139700D03*
X25400Y368300D03*
X25400Y342900D03*
X25400Y317500D03*
X25400Y292100D03*
X25400Y266700D03*
X25400Y76200D03*
X25400Y50800D03*
X25400Y25400D03*
X254000Y25400D03*
X254000Y50800D03*
D16*
X215500Y20330D03*
X190500Y20330D03*
X165500Y20330D03*
X165500Y53330D03*
X190500Y53330D03*
X215500Y53330D03*
D15*
X127000Y21590D03*
X127000Y46990D03*
X127000Y72390D03*
X127000Y97790D03*
X414020Y25400D03*
X388620Y25400D03*
X363220Y25400D03*
X337820Y25400D03*
X312420Y25400D03*
X287020Y25400D03*
X203200Y476250D03*
X228600Y476250D03*
X254000Y476250D03*
X279400Y476250D03*
X304800Y476250D03*
X443230Y22860D03*
X443230Y48260D03*
X443230Y73660D03*
X443230Y99060D03*
X419100Y457200D03*
X469900Y457200D03*
X76200Y457200D03*
X25400Y457200D03*
D17*
X215500Y53330D02*
X215500Y20330D01*
X215500Y53330D02*
X228200Y53330D01*
X230730Y50800D01*
X254000Y50800D01*
X215900Y114300D02*
X177800Y114300D01*
X292100Y419100D02*
X330200Y419100D01*
X393700Y355600D01*
X406400Y355600D01*
X330200Y419100D02*
X330200Y431800D01*
X368300Y469900D01*
X445770Y50800D02*
X443230Y48260D01*
X445770Y50800D02*
X469900Y50800D01*
X482600Y63500D01*
X482600Y101600D01*
X63500Y50800D02*
X25400Y50800D01*
X63500Y50800D02*
X92710Y21590D01*
X127000Y21590D01*
X228600Y450850D02*
X228600Y476250D01*
X228600Y450850D02*
X260350Y419100D01*
X292100Y419100D01*
X63500Y152400D02*
X63500Y114554D01*
X63500Y101600D02*
X63500Y50800D01*
X132620Y114300D02*
X177800Y114300D01*
X132620Y114300D02*
X132366Y114554D01*
X63500Y114554D01*
X444500Y139700D02*
X482600Y101600D01*
X444500Y139700D02*
X444500Y152400D01*
X457200Y165100D01*
X469900Y165100D01*
X139700Y431800D02*
X114300Y406400D01*
D18*
X139700Y431800D03*
X165100Y431800D03*
D17*
X184150Y431800D01*
X228600Y476250D01*
D18*
X419100Y215900D03*
D17*
X469900Y165100D01*
X443230Y48260D02*
X358140Y48260D01*
X258428Y88900D02*
X241300Y88900D01*
X269858Y77470D02*
X328930Y77470D01*
X269858Y77470D02*
X258428Y88900D01*
X241300Y88900D02*
X215900Y114300D01*
X328930Y77470D02*
X358140Y48260D01*
X63500Y152400D02*
X25400Y190500D01*
X165500Y53330D02*
X165500Y20330D01*
X337820Y50800D02*
X363220Y25400D01*
X337820Y50800D02*
X279400Y50800D01*
X237204Y65024D02*
X234410Y62230D01*
X232410Y62230D01*
D18*
X232410Y62230D03*
D17*
X265176Y65024D02*
X279400Y50800D01*
X265176Y65024D02*
X237204Y65024D01*
X393700Y457200D02*
X393700Y469900D01*
X393700Y457200D02*
X368300Y431800D01*
X330200Y215900D02*
X292100Y215900D01*
X419100Y444500D02*
X419100Y457200D01*
X419100Y444500D02*
X406400Y431800D01*
X228600Y406400D02*
X215900Y419100D01*
X228600Y406400D02*
X312420Y406400D01*
D19*
X312420Y406400D03*
D17*
X152400Y406400D02*
X152400Y469900D01*
D18*
X76200Y457200D03*
X165100Y165100D03*
D17*
X215900Y165100D01*
X292100Y165100D02*
X330200Y165100D01*
X393700Y165100D01*
X443230Y115570D01*
X443230Y99060D01*
X330200Y139700D02*
X292100Y139700D01*
X330200Y139700D02*
X377190Y139700D01*
X443230Y73660D01*
X241300Y266700D02*
X215900Y266700D01*
X241300Y266700D02*
X254000Y254000D01*
D18*
X254000Y127000D03*
D17*
X254000Y254000D01*
X228600Y215900D02*
X215900Y215900D01*
X228600Y215900D02*
X241300Y203200D01*
D18*
X241300Y203200D03*
D17*
X38100Y381000D02*
X25400Y368300D01*
X38100Y381000D02*
X203200Y381000D01*
X215900Y393700D01*
X50800Y368300D02*
X25400Y342900D01*
X50800Y368300D02*
X215900Y368300D01*
X50800Y292100D02*
X25400Y317500D01*
X50800Y292100D02*
X215900Y292100D01*
X127000Y190500D02*
X25400Y292100D01*
X127000Y190500D02*
X215900Y190500D01*
X63500Y228600D02*
X25400Y266700D01*
D18*
X63500Y228600D03*
D17*
X25400Y241300D02*
X114300Y152400D01*
X177800Y152400D01*
D18*
X177800Y152400D03*
X241300Y127000D03*
D17*
X279400Y88900D01*
X292100Y88900D01*
X292100Y114300D02*
X381000Y114300D01*
D18*
X381000Y114300D03*
D17*
X292100Y241300D02*
X469900Y241300D01*
X469900Y266700D02*
X292100Y266700D01*
X292100Y292100D02*
X469900Y292100D01*
X469900Y317500D02*
X292100Y317500D01*
X292100Y342900D02*
X330200Y342900D01*
X342900Y330200D01*
X431800Y330200D01*
X444500Y342900D01*
X469900Y342900D01*
X330200Y368300D02*
X292100Y368300D01*
X330200Y368300D02*
X355600Y342900D01*
X419100Y342900D01*
X444500Y368300D01*
X469900Y368300D01*
X190500Y53330D02*
X190500Y20330D01*
D18*
X214630Y71120D03*
D17*
X297180Y71120D01*
X304800Y63500D01*
D19*
X304800Y63500D03*
M02*
