M48
;GenerationSoftware,Autodesk,EAGLE,9.6.2*%
;CreationDate,2022-04-17T03:10:28Z*%
FMAT,2
ICI,OFF
METRIC,TZ,000.000
T5C0.350
T4C0.508
T3C0.813
T2C0.900
T1C1.016
%
G90
M71
T1
X2540Y45720
X7620Y45720
X46990Y45720
X41910Y45720
X44323Y9906
X44323Y7366
X44323Y4826
X44323Y2286
X30480Y47625
X27940Y47625
X25400Y47625
X22860Y47625
X20320Y47625
X28702Y2540
X31242Y2540
X33782Y2540
X36322Y2540
X38862Y2540
X41402Y2540
X12700Y9779
X12700Y7239
X12700Y4699
X12700Y2159
X33020Y13970
X46990Y36830
X46990Y34290
X46990Y31750
X46990Y29210
X33020Y16510
X25400Y5080
X25400Y2540
X2540Y2540
X2540Y5080
X2540Y7620
X2540Y26670
X2540Y29210
X2540Y31750
X2540Y34290
X2540Y36830
X2540Y13970
X2540Y16510
X2540Y19050
X2540Y21590
X2540Y24130
X46990Y13970
X46990Y16510
X46990Y19050
X46990Y21590
X46990Y24130
X46990Y26670
T2
X19050Y2033
X16550Y2033
X16550Y5333
X19050Y5333
X21550Y5333
X21550Y2033
T3
X29210Y31750
X29210Y34290
X29210Y36830
X29210Y39370
X29210Y41910
X29210Y29210
X29210Y26670
X29210Y24130
X29210Y21590
X29210Y19050
X29210Y16510
X29210Y13970
X29210Y11430
X29210Y8890
X21590Y8890
X21590Y11430
X21590Y13970
X21590Y16510
X21590Y19050
X21590Y21590
X21590Y24130
X21590Y26670
X21590Y29210
X21590Y31750
X21590Y34290
X21590Y36830
X21590Y39370
X21590Y41910
X11430Y40640
X11430Y33020
X40640Y35560
X40640Y43180
X15240Y40640
X15240Y33020
X36830Y43180
X36830Y35560
X15240Y46990
X17780Y46990
X39370Y46990
X36830Y46990
X17780Y8890
X17780Y11430
X35560Y21590
X33020Y21590
X33020Y39370
X33020Y41910
T4
X30480Y6350
X31242Y40640
T5
X21463Y7112
X38100Y11430
X24130Y12700
X17780Y15240
X6350Y22860
X24130Y20320
X25400Y12700
X16510Y16510
X7620Y45720
X23241Y6223
X41910Y21590
X16510Y43180
X13970Y43180
M30